# xmcd CD database file
#
# Track frame offsets:
#	150
#	21087
#	43902
#	63610
#	85507
#	97620
#	120422
#	141277
#	159980
#	180140
#	202750
#	233140
#	244470
#	260615
#
# Disc length: 3727 seconds
#
# Revision: 2
# Processed by: cddbd v1.5PL3 Copyright (c) Steve Scherf et al.
# Submitted via: CDex 1.51
#
DISCID=ab0e8d0e
DTITLE=こなかりゆ - Riyu's Album
DYEAR=2000
DGENRE=Pop
TTITLE0=37才のbaby
TTITLE1=シャックリ
TTITLE2=ミニチュア・バービー
TTITLE3=おかしなタマゴ
TTITLE4=犬の気持ち
TTITLE5=SPACE IS A BIG ○
TTITLE6=あららら、あららら
TTITLE7=しみじみ愛されています
TTITLE8=すきよ
TTITLE9=おばあちゃんは女の子
TTITLE10=夢見がち
TTITLE11=縁側
TTITLE12=エバンストンの夏
TTITLE13=WALE,A
EXTD=YEAR: 2000
EXTT0=
EXTT1=
EXTT2=
EXTT3=
EXTT4=
EXTT5=
EXTT6=
EXTT7=
EXTT8=
EXTT9=
EXTT10=
EXTT11=
EXTT12=
EXTT13=
PLAYORDER=
